<svg xmlns="http://www.w3.org/2000/svg" xmlns:xlink="http://www.w3.org/1999/xlink" width="178" height="137.301" viewBox="0 0 178 137.301">
  <defs>
    <filter id="path64" x="0" y="0" width="178" height="137.301" filterUnits="userSpaceOnUse">
      <feOffset dy="3" input="SourceAlpha"/>
      <feGaussianBlur stdDeviation="3" result="blur"/>
      <feFlood flood-opacity="0.502"/>
      <feComposite operator="in" in2="blur"/>
      <feComposite in="SourceGraphic"/>
    </filter>
  </defs>
  <g id="g10" transform="translate(9 6)">
    <g id="g12">
      <g transform="matrix(1, 0, 0, 1, -9, -6)" filter="url(#path64)">
        <path id="path64-2" data-name="path64" d="M101.63-649.789c7.389-5.329,12.671-6.288,19.49-3.542.224.09.452.2.683.307,1.011.478,1.966.93,2.884.1,1.227-1.108,32.236-26.861,35.313-29.416l-.821-.951c-2.463,1.684-28.084,19.2-28.867,19.781a1.357,1.357,0,0,1-1.755-.111,1.071,1.071,0,0,1,.107-1.5c.9-1.058,24.746-20.141,27.405-22.268l-.528-.62c-2.7,1.844-28.512,19.482-29.117,19.836a1.1,1.1,0,0,1-1.53-.282,1,1,0,0,1,.034-1.334c.524-.465,25.208-19.748,27.779-21.756l-.427-.695c-2.844,1.872-28.362,18.66-29.645,19.185a1.071,1.071,0,0,1-1.462-.362,1.358,1.358,0,0,1,.437-1.7c.793-.566,25.369-19.521,27.731-21.343l-.651-1.074c-3.381,2.137-37.454,23.672-38.886,24.5-1.073.617-.938,1.665-.8,2.775.033.253.065.5.081.744.505,7.334-2.039,12.061-9.39,17.443-8.728,6.389-36.912,24.2-61.778,39.916C27.375-605.5,17.411-599.2,10.554-594.792c-2.368,1.523-9.98,8.432-7.573,13.287l.127.256-.268.1a.528.528,0,0,0-.253.447,1.252,1.252,0,0,0,.43,1.141,1.256,1.256,0,0,0,1.315-.085l.163-.084.131.128c3.875,3.789,12.8-1.316,14.977-3.1,6.309-5.159,15.375-12.688,24.974-20.66,22.63-18.8,48.28-40.1,57.054-46.427m-51.259,10.2c1.942.884,3.754,1.7,5.454,2.472,4.143,1.872,7.608,3.438,10.649,4.912,2.906-1.853,5.741-3.665,8.46-5.41-3.331-2.569-6.512-4.974-9.49-7.127-10.329-7.466-27.171-20.45-40.7-30.884-10.188-7.855-18.988-14.639-21.5-16.355a.92.92,0,0,0-.527-.163,1.914,1.914,0,0,0-1.35.786c-1.561,1.817-3.614,8.676,5.512,18.468,14.7,15.772,28.928,26.665,43.5,33.3m80.37,42.646c-14.255-8.073-30.672-20.972-45.156-32.352q-2.293-1.8-4.526-3.552c-2.018,1.648-4.114,3.366-6.268,5.136a61.365,61.365,0,0,1,9.184,7.008c8.825,8.042,37,33.393,39.824,35.372.341.239.758.559,1.242.929,3.359,2.571,9.614,7.359,14.558,4.22l.12-.076.128.063a1.189,1.189,0,0,0,1.354-.45,1.973,1.973,0,0,0,.206-1.658l-.039-.082.022-.087c.55-2.225.615-8.09-10.65-14.469M60.573-663.214h28.6a.332.332,0,0,0,.331-.331v-4.547a.332.332,0,0,0-.331-.331h-6.7c0-1.439-3.556-2.605-7.942-2.605s-7.942,1.166-7.942,2.605H60.573a.332.332,0,0,0-.331.331v4.547a.332.332,0,0,0,.331.331m75.956,15.248h-2.395v3.554h2.395c.951,0,2.009,1.306,2.009,3.179v6.607c0,1.873-1.059,3.179-2.009,3.179h-2.395v3.555h2.395c3.068,0,5.564-3.02,5.564-6.733v-6.607c0-3.713-2.5-6.733-5.564-6.733M12.567-644.412h2.395v-3.554H12.567C9.5-647.966,7-644.946,7-641.233v6.607c0,3.713,2.5,6.733,5.564,6.733h2.395v-3.555H12.567c-.95,0-2.01-1.305-2.01-3.179v-6.607c0-1.873,1.059-3.179,2.01-3.179m83.066-6.774c1.56-1.066,2.883-1.993,3.918-2.751,3.505-2.566,5.907-4.964,7.4-7.583H45.409c4.777,3.651,9.436,7.188,13.642,10.335Zm36.072-6.96c-3.7,3.089-6.344,5.3-6.678,5.6-1.17,1.055-2.377.485-3.442-.018-.222-.1-.441-.209-.656-.3-5.857-2.359-10.389-1.966-16.306,1.673h28.894v-4.429a3.3,3.3,0,0,0-1.812-2.531M20.12-659.215c-2.438,1-3.9,2.247-3.9,3.6v4.429H30q-4.931-3.659-9.876-8.029m54.255,31.841c-9.313,7.658-19.677,16.265-29.475,24.4l-3.963,3.29h65.637c-9.134-8.153-19.23-17.269-22.942-20.652a60.72,60.72,0,0,0-9.257-7.042m7.812-6.4c13,10.172,27.681,21.975,41.308,30.872,5.943-4.723,10.023-14.15,10.023-24.953v-21.13H101.386c-3.968,2.908-10.863,8.414-19.2,15.21m-16.217,1.884c-2.968-1.432-6.341-2.957-10.354-4.77-1.7-.769-3.514-1.587-5.456-2.473a108.394,108.394,0,0,1-17.1-9.852H16.224v21.13c0,9.261,3,17.513,7.6,22.656,12.468-7.9,28.116-17.751,42.148-26.692m1.189-13.317c-1.577-1.141-3.308-2.41-5.151-3.777H92.371C88-646.061,82.43-642.437,76.2-638.43c-3.166-2.437-6.193-4.721-9.036-6.776" transform="translate(9 703.54)" fill="#296819"/>
      </g>
    </g>
  </g>
</svg>
